<svg id="visual" viewBox="0 0 675 900" width="675" height="900" xmlns="http://www.w3.org/2000/svg" xmlns:xlink="http://www.w3.org/1999/xlink" version="1.1"><rect x="0" y="0" width="675" height="900" fill="#262935"></rect><defs><linearGradient id="grad1_0" x1="0%" y1="0%" x2="100%" y2="100%"><stop offset="30%" stop-color="#262935" stop-opacity="1"></stop><stop offset="70%" stop-color="#262935" stop-opacity="1"></stop></linearGradient></defs><defs><linearGradient id="grad2_0" x1="0%" y1="0%" x2="100%" y2="100%"><stop offset="30%" stop-color="#262935" stop-opacity="1"></stop><stop offset="70%" stop-color="#262935" stop-opacity="1"></stop></linearGradient></defs><g transform="translate(675, 0)"><path d="M0 393.8C-26.9 395.2 -53.9 396.6 -76.8 386.2C-99.8 375.8 -118.8 353.6 -141.6 341.8C-164.4 330.1 -191 328.9 -211.1 316C-231.2 303 -244.7 278.4 -256.7 256.7C-268.6 234.9 -278.9 216 -299.3 200C-319.7 184 -350.2 171 -362.2 150C-374.1 129 -367.6 99.9 -369.8 73.5C-371.9 47.2 -382.8 23.6 -393.7 0L0 0Z" fill="#0588fd"></path></g><g transform="translate(0, 900)"><path d="M0 -393.7C25.2 -383.9 50.4 -374.1 71.8 -360.9C93.1 -347.8 110.6 -331.4 135.9 -328C161.1 -324.5 194.1 -334.1 217.8 -325.9C241.4 -317.8 255.8 -292 268 -268C280.2 -243.9 290.4 -221.6 299.3 -200C308.3 -178.4 316 -157.5 332.6 -137.8C349.2 -118.1 374.5 -99.6 386.2 -76.8C397.8 -54.1 395.8 -27 393.8 0L0 0Z" fill="#0588fd"></path></g></svg>